<?xml version="1.0" standalone="no"?><!DOCTYPE svg PUBLIC "-//W3C//DTD SVG 1.1//EN" "http://www.w3.org/Graphics/SVG/1.1/DTD/svg11.dtd"><svg class="icon" width="32px" height="32.00px" fill="#e8e8e8" viewBox="0 0 1024 1024" version="1.1" xmlns="http://www.w3.org/2000/svg"><path d="M19.407 504.524c0 268.009 217.268 485.268 485.276 485.268 268.001 0 485.26-217.258 485.26-485.268 0-268.008-217.258-485.265-485.26-485.268-268.009-0.001-485.276 217.259-485.276 485.266zM929.291 504.524c0 234.511-190.111 424.607-424.607 424.607-234.501 0-424.608-190.098-424.608-424.607 0-234.501 190.109-424.606 424.608-424.606 234.498-0.001 424.607 190.106 424.608 424.606zM367.124 477.882c-7.281 7.264-13.253 17.223-11.601 26.641-1.653 9.419 4.32 19.38 11.601 26.658l232.226 232.226c11.847 11.83 31.045 11.828 42.892 0 11.847-11.847 11.848-31.054 0-42.902l-215.981-215.982 215.981-215.974c11.847-11.845 11.847-31.052 0-42.9-11.845-11.839-31.043-11.839-42.892 0l-232.226 232.23z" /></svg>