<?xml version="1.0" standalone="no"?><!DOCTYPE svg PUBLIC "-//W3C//DTD SVG 1.1//EN" "http://www.w3.org/Graphics/SVG/1.1/DTD/svg11.dtd"><svg class="icon" width="32px" height="32.00px" viewBox="0 0 1024 1024" version="1.1" xmlns="http://www.w3.org/2000/svg"><path d="M462.933333 539.733333l98.133333 0-49.066667-155.733333-49.066667 155.733333zM853.333333 370.56l0-199.893333-199.893333 0-141.44-141.44-141.44 141.44-199.893333 0 0 199.893333-141.44 141.44 141.44 141.44 0 199.893333 199.893333 0 141.44 141.44 141.44-141.44 199.893333 0 0-199.893333 141.44-141.44-141.44-141.44zM610.133333 682.666667l-29.866667-85.333333-136.533333 0-29.866667 85.333333-81.066667 0 136.533333-384 85.333333 0 136.533333 384-81.066667 0z" fill="#515151" /></svg>