<?xml version="1.0" standalone="no"?><!DOCTYPE svg PUBLIC "-//W3C//DTD SVG 1.1//EN" "http://www.w3.org/Graphics/SVG/1.1/DTD/svg11.dtd"><svg class="icon" width="48px" height="31.45px" viewBox="0 0 1563 1024" version="1.1" xmlns="http://www.w3.org/2000/svg"><path d="M1253.408337 538.97507 1173.650055 538.987843C1134.012093 538.994203 1107.797333 507.41354 1115.096477 468.456035L1129.784769 390.061846C1131.112556 382.975192 1131.789474 375.704073 1131.789474 368.280702 1131.789474 303.789343 1079.508884 251.508772 1015.017544 251.508772 988.611458 251.508772 963.856528 260.146517 943.515576 275.9454L887.489841 319.460909C856.182928 343.777136 814.496786 335.923056 794.259492 301.7126L758.141395 240.655576C716.306504 169.934974 640.513976 125.754386 556.912281 125.754386 427.9296 125.754386 323.368421 230.315529 323.368421 359.298246 323.368421 375.019107 324.903882 390.468949 327.919293 405.531037L335.311495 442.456657C343.091919 481.32184 318.964862 523.464668 281.649763 536.505685L246.099896 548.92977C174.636014 573.905237 125.754386 641.608183 125.754386 718.596491 125.754386 813.880194 200.270866 892.671102 295.126501 898.480829L1257.54386 898.245614C1356.761375 898.245614 1437.192982 817.813953 1437.192982 718.596491 1437.192982 619.008 1356.386088 538.958561 1253.408337 538.97507ZM1264.190877 407.803724C1264.190877 407.803724 1246.626762 402.623057 1368.857331 434.855379 1491.087719 467.087719 1562.947368 589.905866 1562.947368 718.596491 1562.947368 887.266196 1426.213547 1024 1257.54386 1024L287.438596 1024C127.130858 1014.181439 0 881.235465 0 718.596491 0 585.245085 85.466633 471.855499 204.611548 430.216336 200.021693 407.289838 197.614035 383.57522 197.614035 359.298246 197.614035 160.863304 358.477429 0 556.912281 0 656.016797 0 745.749738 40.124308 810.752359 105.014038L866.376219 176.629275 918.976404 145.51367C948.427902 132.799254 980.90002 125.754386 1015.017544 125.754386 1133.578959 125.754386 1239.578947 215.578947 1253.373844 323.263865 1267.168741 430.948765 1264.190877 407.803724 1264.190877 407.803724Z" fill="#1296db" /></svg>