<?xml version="1.0" standalone="no"?><!DOCTYPE svg PUBLIC "-//W3C//DTD SVG 1.1//EN" "http://www.w3.org/Graphics/SVG/1.1/DTD/svg11.dtd"><svg class="icon" width="48px" height="48.00px" viewBox="0 0 1024 1024" version="1.1" xmlns="http://www.w3.org/2000/svg"><path d="M71.872 832c1.984-11.168 15.328-102.784 28.8-116.256 13.632-13.632 120.096-48.8 184.576-72.16l82.72 96 82.72-96a2793.664 2793.664 0 0 1 125.184 48.224s-8 38.464-15.904 40.128c-64 13.472-185.92 88.896-183.904 100.064H71.872z" fill="#8bc72a" /><path d="M454.016 448H282.016c-45.632 0-72.768-15.552-82.08-35.168 5.216 51.264 16.192 103.456 35.84 129.088 15.296 20.096 67.936 66.08 132.416 66.08 57.664 0 104.992-36.384 125.184-58.144a696.032 696.032 0 0 1-9.216-104.736c-9.024 1.696-18.88 2.88-30.144 2.88z m7.648 48.768C447.712 519.52 412.48 544 368 544s-79.712-24.48-93.632-47.232a15.968 15.968 0 0 1 13.632-24.32h160a16 16 0 0 1 13.664 24.32zM328 281.344c86.016-10.88 100.416-37.248 129.056-63.584 24.48 44.96 67.264 66.912 79.392 72.448C526.144 223.648 488.448 160 368 160c-150.656 0-172 99.68-172 179.936 0 11.264 0.448 23.68 1.088 36.416 5.504-28.768 51.072-84.928 130.912-95.008zM359.872 928c1.984-11.168 15.328-102.784 28.8-116.256 13.632-13.632 120.096-48.8 184.576-72.16l82.752 96 82.72-96c64.512 23.328 165.344 61.792 179.008 75.392 13.472 13.504 32.352 101.856 34.368 113.024H359.872z" fill="#34b5c7" /><path d="M616 377.344c86.016-10.88 100.416-37.248 129.056-63.584 24.48 44.96 67.296 66.912 79.392 72.448C814.144 319.648 776.48 256 656 256c-150.656 0-172 99.68-172 179.936 0 11.264 0.448 23.68 1.088 36.448 5.504-28.8 51.072-84.96 130.912-95.04zM742.016 544h-172c-45.632 0-72.768-15.552-82.08-35.2 5.216 51.296 16.192 103.456 35.84 129.088 15.296 20.128 67.904 66.112 132.416 66.112 64.608 0 116.448-45.76 131.456-65.376 20.544-26.88 31.456-79.2 36.576-130.08-9.152 19.744-36.384 35.456-82.208 35.456z m7.648 48.768C735.712 615.52 700.48 640 656 640s-79.712-24.48-93.632-47.232a15.936 15.936 0 1 1 13.632-24.352h160a16 16 0 0 1 13.664 24.352z" fill="#e66910" /><path d="M736 488.64c10.816 0 19.584-11.04 19.584-24.64s-8.768-24.64-19.584-24.64-19.584 11.04-19.584 24.64 8.768 24.64 19.584 24.64zM992 960s-25.92-129.216-51.648-154.976c-18.304-18.304-102.08-62.528-176-90.016l-4.672-14.304c20.864-14.912 37.056-31.712 46.4-45.152 33.888-48.64 41.92-153.088 41.92-219.776 0-110.528-37.408-211.744-192-211.744-45.376 0-80.416 8.896-107.616 24C528.16 179.008 477.632 128 368 128c-154.624 0-192 101.248-192 211.744 0 66.688 8 171.2 41.376 219.2 9.44 13.568 25.856 30.528 47.008 45.568l-4.736 14.496c-73.92 27.488-157.6 71.712-175.968 90.016C57.824 734.784 32 864 32 864h312.416c-14.112 44.48-24.416 96-24.416 96h672z m-74.272-132.352c8.16 8.928 22.528 51.712 34.368 100.352H359.872c11.84-48.64 26.24-91.392 34.464-100.384 12-11.968 88-54.176 164.48-82.624l14.432-5.408 7.232-22.08c22.176 10.944 47.744 18.496 75.712 18.496 27.936 0 53.344-7.456 75.36-18.304l7.168 21.92 14.464 5.408c76.608 28.48 152.544 70.624 164.544 82.624zM656 256c110.656 0 160 55.424 160 179.744 0 72.32-9.504 163.232-36.16 201.504-16.064 23.136-62.496 66.752-123.648 66.752-56.96 0-105.696-40.288-124.576-67.36-21.632-31.136-35.616-109.952-35.616-200.864C496 311.424 545.344 256 656 256zM243.648 540.64c-21.664-31.136-35.648-109.952-35.648-200.896C208 215.424 257.344 160 368 160c86.4 0 134.944 34.368 152.288 108.32C477.376 308.16 464 370.24 464 435.744c0 36 2.496 82.88 9.92 126.048-22.752 21.952-60.128 46.208-105.728 46.208-56.96 0-105.696-40.288-124.544-67.36z m246.72 84.032c-4.672-1.856-9.376-3.968-14.016-5.696l-4.672-14.304c3.488-2.464 6.624-5.056 9.824-7.616 2.56 9.824 5.536 19.008 8.864 27.616zM71.872 832c11.84-48.64 26.24-91.392 34.464-100.384 12-11.968 88-54.176 164.448-82.624l14.464-5.408 7.2-22.08c22.208 10.944 47.776 18.496 75.744 18.496 27.936 0 53.344-7.456 75.36-18.304l7.168 21.92 14.464 5.408c18.368 6.848 36.32 14.464 53.664 22.24 8.896 9.728 20.224 19.776 33.536 29.248l-4.736 14.496c-73.92 27.488-157.568 71.712-175.936 90.016-5.312 5.28-10.592 15.008-15.648 26.976H71.872zM288 343.36c-10.816 0-19.584 11.04-19.584 24.64s8.768 24.64 19.584 24.64 19.584-11.04 19.584-24.64-8.768-24.64-19.584-24.64z m160 49.28c10.816 0 19.584-11.04 19.584-24.64s-8.768-24.64-19.584-24.64-19.584 11.04-19.584 24.64 8.768 24.64 19.584 24.64z m128 96c10.816 0 19.584-11.04 19.584-24.64s-8.768-24.64-19.584-24.64-19.584 11.04-19.584 24.64 8.768 24.64 19.584 24.64z" fill="#413a4d" /></svg>