<?xml version="1.0" standalone="no"?><!DOCTYPE svg PUBLIC "-//W3C//DTD SVG 1.1//EN" "http://www.w3.org/Graphics/SVG/1.1/DTD/svg11.dtd"><svg class="icon" width="32px" height="32.00px" viewBox="0 0 1024 1024" version="1.1" xmlns="http://www.w3.org/2000/svg"><path d="M837.546448 554.784432l-134.908596 89.488127 64.588017 20.24202c-52.727898 90.990341-150.997016 152.288428-263.700891 152.288428-168.293961 0-304.71705-136.462998-304.71705-304.805054 0-168.337963 136.423089-304.797891 304.71705-304.797891 100.308567 0 189.024098 48.699142 244.561995 123.536594 4.833075 7.347339 13.139252 12.195763 22.585391 12.195763 14.925944 0 27.025517-12.103666 27.025517-27.033703 0-7.538697-3.086291-14.349823-8.06263-19.250436-65.399499-86.821391-169.06144-143.19533-286.110273-143.19533-197.957561 0-358.448812 160.535253-358.448812 358.545002s160.491251 358.549096 358.448812 358.549096c137.703245 0 254.927063-75.589582 314.950112-189.527564l60.44772 23.687492L837.546448 554.784432 837.546448 554.784432zM837.546448 554.784432" fill="#515151" /><path d="M649.038096 510.826268c11.452843 0 20.738323-9.28548 20.738323-20.745487 0-11.455913-9.28548-20.74651-20.738323-20.74651l-83.930551 0 82.380242-132.497687c5.727445-9.920954 2.330068-22.608927-7.590885-28.340465-9.917884-5.728468-22.604834-2.326998-28.333302 7.594979l-96.182596 153.243173L501.761821 469.334271l-89.326445-153.243173c-5.728468-9.921977-18.412348-13.323447-28.333302-7.594979-9.920954 5.727445-13.319353 18.415418-7.590885 28.340465l75.540464 132.497687-77.091796 0c-11.45182 0-20.7373 9.286504-20.7373 20.74651 0 11.455913 9.28548 20.745487 20.7373 20.745487l106.924241 0 0 41.491996L374.959857 552.318264c-11.45182 0-20.7373 9.28548-20.7373 20.742417 0 11.460006 9.28548 20.745487 20.7373 20.745487l106.924241 0 0 89.899496c0 19.098987 8.566096 34.576493 27.652803 34.576493 19.0908 0 27.653827-15.477506 27.653827-34.576493l0-89.895403 111.083981 0c11.456936 0 20.742417-9.289574 20.742417-20.745487 0-11.456936-9.28548-20.74651-20.742417-20.74651l-111.079888 0 0-41.491996L649.038096 510.826268 649.038096 510.826268 649.038096 510.826268zM649.038096 510.826268" fill="#515151" /></svg>