<?xml version="1.0" standalone="no"?><!DOCTYPE svg PUBLIC "-//W3C//DTD SVG 1.1//EN" "http://www.w3.org/Graphics/SVG/1.1/DTD/svg11.dtd"><svg class="icon" width="48px" height="48.00px" viewBox="0 0 1024 1024" version="1.1" xmlns="http://www.w3.org/2000/svg"><path d="M511.669 512.504m-450 0a450 450 0 1 0 900 0 450 450 0 1 0-900 0Z" fill="#5fb5f5" /><path d="M510.333 420.678c-244.181 0-442.129 103.803-442.129 231.852 0 128.048 197.948 231.852 442.129 231.852S952.462 780.578 952.462 652.53c0.001-128.049-197.948-231.852-442.129-231.852z" fill="#84efee" /><path d="M500.503 420.284c-191.919 0-347.5 87.928-347.5 196.394 0 108.465 155.581 196.394 347.5 196.394s347.5-87.929 347.5-196.394-155.581-196.394-347.5-196.394z m-3.328 233.802c-116.314 0-210.605-43.441-210.605-97.028s94.291-97.028 210.605-97.028 210.605 43.441 210.605 97.028c0 53.588-94.291 97.028-210.605 97.028z" fill="#ff97b1" /><path d="M495.317 352.436c-191.919 0-347.5 87.928-347.5 196.394 0 108.465 155.581 196.394 347.5 196.394s347.5-87.929 347.5-196.394c-0.001-108.466-155.582-196.394-347.5-196.394z m-3.328 233.802c-116.314 0-210.605-43.441-210.605-97.028s94.291-97.028 210.605-97.028 210.605 43.441 210.605 97.028-94.291 97.028-210.605 97.028z" fill="#ff3461" /><path d="M495.317 352.436c191.919 0 347.5 87.928 347.5 196.394 0 108.465-155.581 196.394-347.5 196.394s-347.5-87.929-347.5-196.394c0-108.466 155.581-196.394 347.5-196.394m0-4.651c-93.609 0-181.687 20.642-248.008 58.124-67.158 37.955-104.143 88.712-104.143 142.92 0 54.209 36.985 104.965 104.143 142.92 66.321 37.482 154.398 58.124 248.008 58.124s181.687-20.642 248.008-58.124c67.158-37.955 104.143-88.712 104.143-142.92 0-54.209-36.985-104.966-104.143-142.92-66.321-37.482-154.399-58.124-248.008-58.124z" fill="#e92633" /><path d="M700.69 490.233l-0.386-5.089c-6.213-82.107-27.328-352.686-38.135-387.187-8.053-25.701-26.506-41.046-49.367-41.046-22.001 0-47.144 13.325-74.733 39.602-56.707 54.009-228.269 315.714-249.593 367.534-4.914 11.941-7.132 23.201-6.664 33.707-23.461 14.9-40.204 30.896-33.2 42.779 6.256 10.615 61.223 16.12 82.303 18.742 25.816 15.594 91.68 30.384 160.427 32.491 3.395 0.104 6.851 0.159 10.274 0.159 74.219 0 149.137-24.981 182.19-60.748 12.299-13.309 17.978-27.084 16.884-40.944z" fill="#ffffff" /><path d="M674.16 381.661c-12.451 1.169-62.256 54.944-57.728 63.127 4.528 8.183 63.388-24.549 71.311-25.718s-8.935-37.846-13.583-37.409z" fill="#e64466" /><path d="M278.02 495.725c-4.538-12.722-21.978-42.852-60.228-41.513-33.039 1.157-42.854 18.319-54.523 39.075-13.692 24.354-22.475 65.84-1.729 107.799 1.297-41.513 33.215-79.918 67.857-86.614 35.066-6.778 51.865 7.365 59.645 15.4-4.538-6.025-12.967-26.781-11.022-34.147zM828.44 494.85c-11.67-20.756-22.068-38.811-55.107-39.968-38.251-1.339-63.859 28.251-68.397 38.964-0.77 15.998-11.234 31.549-11.234 31.549s36.843-18.287 70.555-6.235 64.183 57.377 62.454 86.391c23.34-43.745 15.421-86.347 1.729-110.701zM556.472 591.267c-31.011 6.249-83.092 5.133-114.103 1.339-40.628 24.997-77.258 96.845-80.931 135.903 62.238 18.971 185.202 22.095 266.025 0.223 9.94-31.692-31.444-111.129-70.991-137.465z" fill="#ffffff" /><path d="M361.653 739.909c3.458 33.924 51.649 62.939 70.666 68.295 45.382 4.352 79.419 4.687 122.856 1.339 27.661-5.356 72.719-41.513 70.126-67.402-65.696 24.104-174.288 24.55-263.648-2.232zM847.457 619.835c0-12.498 0.432-27.675-5.187-33.032-2.161 5.803-12.966 30.353-16.856 33.924 12.534 13.614 7.78 48.208 2.161 69.634 8.213-11.159 20.747-47.761 19.882-70.526zM178.396 638.136c-5.619-7.142-19.882-26.782-22.043-33.478-4.754 6.249-3.458 15.177-2.593 25.89 1.729 25.443 19.882 54.681 29.39 66.956-5.619-21.426-6.483-50.887-4.754-59.368z" fill="#ffffff" /><path d="M797.096 777.886c-4.274-5.17 31.188-95.329 55.491-108.251 19.443-10.338 30.173 72.865 32.29 86.98 2.117 14.117-69.161 40.443-87.781 21.271z" fill="#ffffff" /><path d="M855.893 668.749c17.358-0.006 26.99 74.572 28.984 87.867 1.587 10.58-38.059 28.02-65.86 28.02-9.291 0-17.258-1.947-21.922-6.75-4.274-5.17 31.188-95.329 55.491-108.251 1.132-0.601 2.235-0.885 3.307-0.886m0.002-4.651h-0.001c-1.858 0.001-3.706 0.482-5.49 1.431-23.56 12.527-53.843 86.335-57.755 106.074-0.787 3.972-0.942 7.064 0.863 9.247l0.119 0.143 0.13 0.134c5.259 5.415 13.757 8.16 25.258 8.16 23.425 0 56.654-11.887 67.084-23.999 2.701-3.136 3.836-6.286 3.375-9.362-0.122-0.81-0.272-1.849-0.45-3.087-8.983-62.201-18.892-88.741-33.133-88.741z" fill="#2788cc" /><path d="M150.734 729.739c1.729-16.069 31.232-63.939 57.916-70.063 15.56-3.571 18.153 107.129 14.695 110.7-16.423 11.606-76.933-21.872-72.611-40.637z" fill="#ffffff" /><path d="M209.382 659.592c14.912-0.013 17.367 107.271 13.964 110.785-2.334 1.649-5.559 2.388-9.36 2.388-22.952 0-66.959-26.927-63.251-43.026 1.729-16.069 31.232-63.939 57.916-70.063 0.246-0.056 0.491-0.084 0.731-0.084m0.002-4.651h-0.007a8.016 8.016 0 0 0-1.767 0.202c-29.798 6.839-59.376 56.725-61.47 73.832-1.049 5.046 0.822 10.624 5.567 16.585 12.795 16.077 43.643 31.856 62.278 31.856 4.949 0 9.001-1.09 12.044-3.241l0.355-0.251 0.302-0.312c1.227-1.267 2.385-2.463 2.623-17.532 0.139-8.794-0.102-19.707-0.677-30.728-0.881-16.878-3.246-47.289-9.194-61.328-2.553-6.027-5.936-9.083-10.054-9.083z" fill="#2788cc" /><path d="M212.066 660.829c-1.061-1.012-2.199-1.432-3.416-1.153-26.684 6.124-56.187 53.994-57.916 70.063-1.729 5.374 4.336 14.217 14.047 21.89 3.166-18.352 23.951-78.121 47.285-90.8zM857.39 668.982c-1.539-0.386-3.136-0.232-4.803 0.654-24.304 12.922-59.766 103.08-55.491 108.251 12.257 12.62 47.325 5.524 69.262-4.825-8.127-19.491-13.755-71.772-8.968-104.08z" fill="#a4c9e6" /><path d="M747.041 452.726c5.232-3.779 19.185-6.686 27.614-4.942-12.79-15.697-48.543-39.241-63.077-45.636-0.291 3.779-0.581 10.755-0.581 10.755s28.196 23.254 36.044 39.823zM260.157 449.238c7.848-16.569 36.044-39.823 36.044-39.823s-0.291-6.976-0.581-10.755c-14.534 6.395-50.287 29.94-63.077 45.636 8.43-1.744 22.382 1.163 27.614 4.942zM746.75 515.512c-18.119 34.784-109.585 85.459-164.523 98.83 15.115 17.731 25.289 37.788 29.94 47.38 79.064-29.358 148.827-99.411 162.779-137.49-4.941-2.906-12.354-7.267-28.196-8.72zM213.068 520.453c-10.852 6.201-17.634 11.433-21.51 15.697 36.625 70.344 112.589 97.958 195.916 119.759 4.651-9.592 13.371-23.836 28.486-41.857-61.914-8.527-150.28-21.22-202.892-93.599z" fill="#ff5c84" /><path d="M683.806 531.177c12.299-13.309 17.979-27.084 16.884-40.945l-0.386-5.089c-7.813 10.893-64.542 73.16-174.177 80.074-96.795 6.104-157.547-10.464-184.289-31.102-4.941 2.035-63.039 12.187-82.843 6.686-5.232-1.453-10.213-6.24-11.94-7.149-0.199 2.409 0.28 4.713 1.557 6.88 6.256 10.615 61.223 16.12 82.303 18.742 25.816 15.594 91.68 30.384 160.427 32.491 3.395 0.104 6.851 0.159 10.274 0.159 74.219 0.001 149.137-24.98 182.19-60.747z" fill="#e8f1fd" /><path d="M537.091 95.058c-56.759 54.06-228.48 316.004-249.824 367.873-6.052 14.707 2.482 20.284 16.928 20.461-30.39 16.216-57.835 35.748-57.584 50.649 11.673-21.941 95.742-52.689 122.173-58.608 7.353-16.748 23.883-55.787 75.738-157.038C493.213 223.326 567.385 73.028 612.443 56.4c-22.281 0.001-47.589 12.216-75.352 38.658z" fill="#a4c9e6" /><path d="M287.267 462.931c-4.651 11.372-6.784 22.172-6.479 32.333 13.961-7.366 40.122-26.987 94.769-43.991-16.406-2.85-39.241 12.596-52.806 6.395-13.951-6.378 4.936-61.503 10.949-76.739-13.954 22.091-40.793 68.212-46.433 82.002z" fill="#75b1ec" /><path d="M704.914 489.027l-0.386-5.074c-7.975-105.395-27.678-354.208-38.335-388.226-8.691-27.744-28.804-44.307-53.805-44.307-23.234 0-49.456 13.756-77.94 40.886C476.41 147.583 306.3 406.668 283.762 461.438c-4.763 11.575-7.1 22.566-7.074 32.928-19.184 12.473-27.768 22.023-31.499 28.553-4.994 8.741-3.007 15.072-0.997 19.135 6.665 13.474 46.227 16.281 84.954 21.419 42.245 25.386 132.817 31.219 161.641 32.104 3.443 0.104 6.948 0.159 10.417 0.159 75.416 0 151.741-25.595 185.605-62.242 13.215-14.301 19.306-29.262 18.105-44.467z m-21.522 41.311c-33.051 35.767-107.97 60.748-182.189 60.748-3.389 0-6.846-0.053-10.274-0.157-20.475-0.628-60.886-3.061-101.493-12.294-22.231-5.055-48.276-14.774-58.934-20.2-3.488-0.194-77.126-8.527-82.303-18.742-5.832-11.507 7.668-25.827 28.731-39.875 28.381-18.509 83.028-43.313 102.527-47.725 0 0-2.771-1.885-4.636-1.885-7.566 0-36.353 11.15-62.862 24.347-12.178 6.063-22.224 11.665-30.535 16.81 0.386-8.896 2.579-18.29 6.64-28.156 22.441-54.536 191.811-312.501 249.593-367.534 27.59-26.278 52.734-39.602 74.732-39.602 22.861 0 41.315 15.344 49.367 41.046 10.516 33.565 30.173 281.953 38.136 387.189l0.387 5.088c1.093 13.858-4.588 27.633-16.887 40.942z" fill="#2788cc" /><path d="M448.342 235.522c-10.957 0-19.87-9.171-19.87-20.445 0-11.274 8.913-20.445 19.87-20.445 10.956 0 19.869 9.171 19.869 20.445 0.001 11.274-8.913 20.445-19.869 20.445z" fill="#27649f" /><path d="M448.342 199.283c-8.392 0-15.22 7.085-15.22 15.794s6.828 15.794 15.22 15.794c8.391 0 15.219-7.085 15.219-15.794s-6.828-15.794-15.219-15.794z" fill="#ffffff" /><path d="M449.097 222.8c-8.392 0-14.812-4.537-14.812-13.246 0-0.204 0.022-0.401 0.029-0.603a16.225 16.225 0 0 0-1.192 6.126c0 8.709 6.828 15.794 15.22 15.794 8.195 0 14.88-6.763 15.189-15.191-2.309 5.675-8.134 7.12-14.434 7.12z" fill="#d9e4fd" /><path d="M435.325 223.638a7.923 8.183 0 1 0 15.846 0 7.923 8.183 0 1 0-15.846 0Z" fill="#343a5a" /></svg>