<?xml version="1.0" standalone="no"?><!DOCTYPE svg PUBLIC "-//W3C//DTD SVG 1.1//EN" "http://www.w3.org/Graphics/SVG/1.1/DTD/svg11.dtd"><svg class="icon" width="32px" height="32.00px" viewBox="0 0 1024 1024" version="1.1" xmlns="http://www.w3.org/2000/svg"><path d="M917.71072 896.918673l-6.753821 0-52.630684 0 0-82.9799c0-127.829364-68.27192-242.419192-174.234253-304.609603 105.95517-62.229297 174.234253-176.824241 174.234253-304.624952L858.326215 100.536764l53.17713 0 6.757914 0c21.696138 0 39.305191-17.60803 39.305191-39.301098 0-21.699208-17.609053-39.308261-39.305191-39.308261l-6.757914 0L94.065887 21.927405l-6.752798 0c-21.705348 0-39.310308 17.609053-39.310308 39.299051 0 21.702278 17.60496 39.310308 39.310308 39.310308l6.752798 0 56.758702 0 0 104.167454c0 127.789455 68.266803 242.376213 174.221974 304.608579-105.95517 62.2119-174.222997 176.800705-174.222997 304.625976l0 82.9799L93.520465 896.918673l-6.757914 0c-21.695115 0-39.306214 17.610076-39.306214 39.303144 0 21.697161 17.609053 39.307238 39.306214 39.307238l6.757914 0 817.435411 0 6.754844 0c21.704324 0 39.314401-17.610076 39.314401-39.305191S939.415045 896.918673 917.71072 896.918673zM779.711739 896.918673 229.433948 896.918673l0-82.9799c0-125.665071 84.808548-234.863099 206.466352-266.145569 5.013177-1.057075 9.749038-3.090385 13.950733-5.934153 0.044002-0.029676 0.089028-0.058328 0.13303-0.088004 0.470721-0.321318 0.934279-0.651846 1.38965-0.99363 0.052189-0.039909 0.104377-0.075725 0.155543-0.115634 0.99363-0.74906 1.954515-1.547239 2.876514-2.39249 0.017396-0.016373 0.033769-0.031722 0.051165-0.048095 0.424672-0.391926 0.840134-0.793062 1.248434-1.203408 0.073678-0.073678 0.146333-0.149403 0.218988-0.224104 0.355087-0.36225 0.703011-0.731664 1.044796-1.109264 0.075725-0.081864 0.150426-0.165776 0.226151-0.249687 0.341784-0.385786 0.677429-0.777713 1.004887-1.176802 0.058328-0.069585 0.115634-0.138146 0.172939-0.207731 0.36225-0.448208 0.716314-0.903579 1.060145-1.367137 0.01535-0.021489 0.030699-0.041956 0.046049-0.062422 0.724501-0.983397 1.407046-2.004657 2.040473-3.061732 0.086981-0.144286 0.166799-0.289596 0.251733-0.435928 0.199545-0.343831 0.400113-0.687662 0.589424-1.039679 0.157589-0.289596 0.308015-0.585331 0.457418-0.87902 0.100284-0.195451 0.200568-0.38988 0.297782-0.587378 0.193405-0.393973 0.379647-0.793062 0.559748-1.195222 0.035816-0.077771 0.070608-0.155543 0.105401-0.234337 3.420913-7.731078 4.387937-16.615423 2.159176-25.456788-2.088568-8.287757-6.65149-15.259542-12.695137-20.363793-0.1361-0.115634-0.270153-0.234337-0.407276-0.347924-0.232291-0.189312-0.467651-0.372483-0.703011-0.556679-0.309038-0.242524-0.617054-0.485047-0.932232-0.719384-0.058328-0.042979-0.11768-0.083911-0.176009-0.12689-3.981684-2.918469-8.574283-5.139044-13.658068-6.420223C314.96802 440.423825 229.435994 330.836941 229.435994 204.704219L229.435994 100.536764l550.274722 0 0 104.167454c0 126.132722-85.521792 235.719606-207.967542 266.534426-19.221784 4.805446-31.53625 23.006993-29.500894 42.172495 0.007163 0.065492 0.016373 0.12996 0.022513 0.195451 0.062422 0.559748 0.13303 1.119497 0.220011 1.679245 0.020466 0.132006 0.046049 0.261966 0.067538 0.391926 0.082888 0.50142 0.168846 1.001817 0.272199 1.503237 0.026606 0.134053 0.061398 0.264013 0.090051 0.398066 0.096191 0.444115 0.188288 0.889253 0.299829 1.333368 0.166799 0.660032 0.355087 1.306762 0.552585 1.950422 0.021489 0.069585 0.046049 0.140193 0.067538 0.209778 0.163729 0.521886 0.336668 1.039679 0.520863 1.549286 0.029676 0.081864 0.061398 0.161682 0.091074 0.243547 0.188288 0.5137 0.38681 1.02126 0.594541 1.520633 0.024559 0.060375 0.050142 0.119727 0.074701 0.180102 0.227174 0.539282 0.465604 1.073448 0.714268 1.599428 0.00921 0.01842 0.017396 0.035816 0.025583 0.054235 1.089821 2.292206 2.384303 4.445242 3.857864 6.439666 0.007163 0.008186 0.014326 0.01842 0.020466 0.025583 0.333598 0.451278 0.676405 0.893346 1.028423 1.329275 0.113587 0.140193 0.231267 0.277316 0.346901 0.417509 0.239454 0.289596 0.483001 0.576121 0.730641 0.855484 0.186242 0.211824 0.373507 0.421602 0.564865 0.629333 0.167822 0.184195 0.338714 0.363274 0.51063 0.543376 0.258896 0.272199 0.51984 0.541329 0.786922 0.805342 0.057305 0.056282 0.11461 0.11154 0.172939 0.167822 3.634784 3.560082 7.995091 6.445806 12.93152 8.404414 0.186242 0.073678 0.37146 0.146333 0.557702 0.217964 0.315178 0.11768 0.630357 0.23536 0.950651 0.347924 0.36532 0.12996 0.735757 0.249687 1.105171 0.367367 0.176009 0.056282 0.347924 0.115634 0.524956 0.169869 0.62217 0.190335 1.251503 0.363274 1.883907 0.521886 122.378212 30.745235 207.883631 140.318816 207.883631 266.477121L779.712763 896.918673z" fill="#515151" /></svg>