<?xml version="1.0" standalone="no"?><!DOCTYPE svg PUBLIC "-//W3C//DTD SVG 1.1//EN" "http://www.w3.org/Graphics/SVG/1.1/DTD/svg11.dtd"><svg class="icon" width="48px" height="48.00px" viewBox="0 0 1024 1024" version="1.1" xmlns="http://www.w3.org/2000/svg"><path d="M512.009902 28.981118C245.673424 28.981118 28.991262 245.66328 28.991262 511.999758s216.682162 483.01864 483.01864 483.018641c56.706388 0 108.708175-9.104901 158.734416-26.93312-7.824902-10.37041-14.046182-22.011159-18.055237-34.661417C608.425253 948.542345 562.292142 956.376907 512.009902 956.376907c-245.025696 0-444.377149-199.346623-444.377149-444.377149s199.351453-444.377149 444.377149-444.377148 444.377149 199.351453 444.377149 444.377148c0 111.876777-41.602395 217.41635-116.755266 299.500538a116.61036 116.61036 0 0 1 24.793347 30.613722C948.658753 752.291872 995.028542 635.584908 995.028542 511.999758 995.028542 245.66328 778.34638 28.981118 512.009902 28.981118z" fill="#fd5a5a" /><path d="M830.802204 511.999758c0-16.156974-1.255848-25.150781-3.463243-39.076207-14.949427 12.152749-33.763003 19.755462-54.498993 19.755462-0.405736 0-0.78249-0.111094-1.188226-0.120755 0.78249 6.076374 1.188226 11.365429 1.188226 19.4415 0 143.8188-117.011266 260.830066-260.830066 260.830066s-260.830066-117.011266-260.830066-260.830066 117.011266-260.830066 260.830066-260.830065c77.282982 0 149.726118 33.94172 199.481868 93.03905 13.698409-13.669428 32.048287-22.378254 52.33024-24.508366a28.981118 28.981118 0 0 0-5.245583-9.785957C697.716078 235.746908 607.85046 193.207456 512.009902 193.207456c-175.780143 0-318.792302 143.012159-318.792303 318.792302s143.012159 318.792302 318.792303 318.792303 318.792302-143.007329 318.792302-318.792303z" fill="#9ab040" /><path d="M839.631785 811.500296C819.209757 793.507852 792.484336 782.490197 763.179595 782.490197c-63.922687 0-115.924474 52.001787-115.924474 115.924474 0 12.205881 1.927244 23.957725 5.43396 35.009191 4.009055 12.655088 10.225505 24.295838 18.055237 34.661417C691.924685 996.110021 725.417197 1014.339144 763.179595 1014.339144c63.927517 0 115.924474-52.001787 115.924473-115.924473 0-20.431688-5.361507-39.612359-14.683766-56.300653a116.61036 116.61036 0 0 0-24.788517-30.613722zM685.896612 405.735658c0 47.538695 38.366171 86.170525 85.75513 86.8226 0.405736 0.00966 0.78249 0.120755 1.188226 0.120755 20.73599 0 39.549566-7.602713 54.498993-19.755462C846.973668 456.964615 859.783323 432.944098 859.783323 405.735658c0-47.9396-38.998925-86.943355-86.943355-86.943356-3.086489 0-6.018412 0.594113-9.017958 0.908075-20.286783 2.125282-38.631831 10.838938-52.33024 24.508366A86.619733 86.619733 0 0 0 685.896612 405.735658z" fill="#49a25a" /><path d="M512.009902 338.113048c-95.8792 0-173.88671 78.00751-173.886711 173.88671s78.00751 173.88671 173.886711 173.886711 173.88671-78.00751 173.88671-173.886711-78.00751-173.88671-173.88671-173.88671z m0 270.490439c-53.262465 0-96.603728-43.341263-96.603728-96.603729s43.341263-96.603728 96.603728-96.603728 96.603728 43.341263 96.603728 96.603728-43.341263 96.603728-96.603728 96.603729z" fill="#8f89f5" /><path d="M1018.348682 5.660978a19.311085 19.311085 0 0 0-27.319534 0l-115.924474 115.924474A19.311085 19.311085 0 0 0 888.764441 154.565965c4.946111 0 9.887392-1.883773 13.659767-5.660979l115.924474-115.924473a19.311085 19.311085 0 0 0 0-27.319535zM121.595595 875.094531l-115.924473 115.924473A19.311085 19.311085 0 0 0 19.330889 1023.999517c4.946111 0 9.887392-1.883773 13.659767-5.660978l115.924474-115.924474a19.311085 19.311085 0 0 0 0-27.319534 19.311085 19.311085 0 0 0-27.319535 0z" fill="#9d57c4" /></svg>